<?xml version="1.0" encoding="utf-8"?>
<!-- Generator: Adobe Illustrator 27.1.1, SVG Export Plug-In . SVG Version: 6.00 Build 0)  -->
<svg version="1.1" id="Layer_1" xmlns="http://www.w3.org/2000/svg" xmlns:xlink="http://www.w3.org/1999/xlink" x="0px" y="0px"
	 viewBox="0 0 800 800" style="enable-background:new 0 0 800 800;" xml:space="preserve">
<style type="text/css">
	.st0{fill:#75433B;}
	.st1{fill:#8C5549;}
	.st2{opacity:0.15;fill:#202020;enable-background:new    ;}
	.st3{fill:#995E55;}
</style>
<g>
	<path class="st0" d="M782.3,281.4c1-2.5,0.4-5.4-1.4-7.2c-0.4-0.3-0.8-0.6-1.2-0.9l-54.2-33.6c1.6-2.7,1.1-6.2-1.3-8.3
		c-2.4-2.1-6-2.2-8.4-0.1l-47.4,39.9c-2.3,2.1-3,5.5-1.4,8.2c1.6,2.7,4.9,3.9,7.8,2.9l21,59.7c1.2,3.2,4.7,5,8,4
		C721.2,340.7,763.7,323.9,782.3,281.4z"/>
	<path class="st0" d="M124.4,342.9l21-59.7l0,0c3,1,6.2-0.2,7.8-2.9c1.5-2.6,1-5.8-1-7.8c-0.1-0.2-0.3-0.3-0.4-0.4l-47.4-39.9
		c-2.4-2-6-2-8.4,0.1s-3,5.6-1.3,8.3l-54.2,33.6c-2.7,1.7-3.8,5.2-2.5,8.1c5,11.5,12.3,22.1,21.6,31.4
		c20.7,20.7,46.6,30.1,56.8,33.2C119.8,347.9,123.3,346.2,124.4,342.9z"/>
</g>
<g>
	<path class="st1" d="M123.1,266.5L97,292.6c-3.8,3.8-9.9,3.8-13.7,0c-3.8-3.8-3.8-9.9,0-13.7l26.1-26.1c3.8-3.8,9.9-3.8,13.7,0
		C126.9,256.6,126.9,262.7,123.1,266.5z"/>
	<path class="st1" d="M745.3,325.6l-20.7-35.8c-0.4-0.7-0.9-1.4-1.5-2c-3-3-7.8-3.8-11.7-1.5c-4.6,2.7-6.2,8.7-3.5,13.3l21,36.1
		C734.3,333,739.9,329.6,745.3,325.6z"/>
	<path class="st1" d="M99.5,157.1c-25.6,38.2-15.4,89.9,22.8,115.5s89.9,15.4,115.5-22.8c23.8-35.5,86-71.3,171.3-71.3
		s147.5,35.8,171.3,71.3c25.6,38.2,77.3,48.4,115.5,22.8s48.4-77.3,22.8-115.5c-60-89.6-178.6-145.2-309.6-145.2
		S159.5,67.5,99.5,157.1z"/>
</g>
<path class="st2" d="M692.3,123.7C627.5,53.9,523,11.9,409.1,11.9c-131,0-249.6,55.7-309.6,145.2c-24.5,36.5-16.2,85.4,18.1,112.1
	c-21.4-27.6-23.9-66.8-3.4-97.4c60-89.6,178.6-145.2,309.6-145.2C529.4,26.6,627,62.8,692.3,123.7z"/>
<g>
	<path class="st3" d="M664,177.9c3,4.5,1.8,10.5-2.6,13.5c-4.5,3-10.5,1.8-13.5-2.6C605,125.5,538.3,86,464.9,80.4
		c-5.3-0.4-9.3-5.1-8.9-10.4s5.1-9.3,10.4-8.9c62.1,4.8,119.7,31.9,164,76.2C642.6,149.6,653.9,163.2,664,177.9z"/>
	<path class="st3" d="M445.9,69.5c-0.4,5.4-5.1,9.4-10.4,9c-4.5-0.3-9-0.5-13.5-0.7c-5.4-0.2-9.6-4.7-9.4-10.1s4.7-9.6,10.1-9.4
		c4.7,0.2,9.5,0.5,14.2,0.8c2.4,0.2,4.5,1.2,6.1,2.8C444.9,63.8,446,66.5,445.9,69.5z"/>
</g>
<g>
	<path class="st0" d="M734.5,541.8c0.9-2.2,0.4-4.6-1.2-6.2c-0.3-0.3-0.6-0.6-1-0.8l-46.9-29.1c1.4-2.3,1-5.4-1.1-7.2
		s-5.2-1.8-7.3,0l-41,34.6c-2.1,1.8-2.6,4.8-1.3,7.1s4.1,3.4,6.7,2.5l18.2,51.7c1,2.8,4,4.4,6.9,3.5
		C681.6,593.4,718.4,578.8,734.5,541.8z"/>
	<path class="st0" d="M165,595.3l18.2-51.7l0,0c2.5,0.9,5.4-0.2,6.7-2.5c1.3-2.2,0.9-4.9-0.9-6.7c-0.2-0.1-0.3-0.2-0.4-0.3l-41-34.6
		c-2.1-1.8-5.2-1.8-7.3,0c-2.1,1.8-2.6,4.9-1.1,7.2l-46.9,29.1c-2.4,1.5-3.3,4.4-2.2,7c4.4,10,10.6,19.1,18.7,27.2
		c17.9,17.9,40.4,26,49.2,28.7C160.8,599.6,163.9,598.1,165,595.3z"/>
</g>
<g>
	<path class="st1" d="M163.8,529.1l-22.6,22.6c-3.3,3.3-8.6,3.3-11.9,0s-3.3-8.6,0-11.9l22.6-22.6c3.3-3.3,8.6-3.3,11.9,0
		C167,520.5,167,525.8,163.8,529.1z"/>
	<path class="st1" d="M702.7,580.3l-18-31c-0.3-0.6-0.8-1.2-1.3-1.7c-2.7-2.6-6.8-3.3-10.2-1.3c-4.1,2.3-5.4,7.5-3.1,11.5l18.2,31.3
		C693,586.7,697.8,583.8,702.7,580.3z"/>
	<path class="st1" d="M143.3,434.4c-22.1,33.1-13.3,77.8,19.8,100c33.1,22.1,77.8,13.3,100-19.8c20.6-30.8,74.4-61.8,148.3-61.8
		s127.7,31.1,148.3,61.8c22.1,33.1,66.9,42,100,19.8c33.1-22.1,42-66.9,19.8-100c-51.9-77.5-154.7-125.7-268.1-125.7
		S195.2,356.8,143.3,434.4z"/>
</g>
<path class="st2" d="M656.7,405.4c-56.1-60.4-146.6-96.8-245.2-96.8c-113.4,0-216.2,48.2-268.1,125.7c-21.2,31.6-14,74,15.6,97
	c-18.6-23.8-20.7-57.8-3-84.3c51.9-77.5,154.7-125.7,268.1-125.7C515.6,321.3,600.1,352.7,656.7,405.4z"/>
<g>
	<path class="st3" d="M632,452.3c2.6,3.9,1.7,9.1-2.2,11.7s-9.1,1.6-11.7-2.2c-37.1-54.7-94.9-88.9-158.4-93.8
		c-4.6-0.3-8.1-4.4-7.7-9c0.3-4.6,4.4-8.1,9-7.7c53.8,4.1,103.7,27.7,142,66C613.6,427.9,623.3,439.6,632,452.3z"/>
	<path class="st3" d="M443.2,358.4c-0.3,4.7-4.4,8.1-9,7.8c-3.9-0.2-7.8-0.5-11.7-0.6c-4.6-0.2-8.3-4.1-8.1-8.7s4.1-8.3,8.7-8.1
		c4.1,0.2,8.2,0.4,12.3,0.7c2.1,0.1,3.9,1,5.3,2.4C442.4,353.6,443.3,355.9,443.2,358.4z"/>
</g>
<g>
	<path class="st0" d="M642.4,757.3c0.7-1.6,0.3-3.4-0.8-4.5c-0.2-0.2-0.4-0.4-0.7-0.6l-33.7-21c1-1.7,0.7-3.9-0.8-5.2
		s-3.7-1.3-5.2,0l-29.5,24.9c-1.5,1.3-1.8,3.4-0.9,5.1s3,2.4,4.8,1.8l13.1,37.2c0.7,2,2.9,3.1,5,2.5
		C604.6,794.2,631.1,783.7,642.4,757.3z"/>
	<path class="st0" d="M232.7,795.6l13-37.2l0,0c1.8,0.6,3.8-0.1,4.8-1.8c1-1.6,0.7-3.6-0.6-4.9c-0.1,0-0.2-0.1-0.3-0.2l-29.5-24.9
		c-1.5-1.3-3.7-1.3-5.2,0s-1.8,3.5-0.8,5.2l-33.7,21c-1.7,1-2.4,3.2-1.6,5c3.2,7.2,7.7,13.8,13.5,19.6
		c12.9,12.9,29.1,18.8,35.4,20.7C229.8,798.7,232,797.6,232.7,795.6z"/>
</g>
<g>
	<path class="st1" d="M231.9,748l-16.2,16.2c-2.4,2.4-6.2,2.4-8.6,0c-2.4-2.4-2.4-6.2,0-8.6l16.2-16.2c2.4-2.4,6.2-2.4,8.6,0
		C234.2,741.8,234.2,745.6,231.9,748z"/>
	<path class="st1" d="M619.8,784.8l-12.9-22.3c-0.3-0.4-0.6-0.8-1-1.2c-1.9-1.9-4.9-2.4-7.3-1c-2.9,1.7-3.9,5.4-2.2,8.3l13,22.5
		C612.7,789.4,616.3,787.3,619.8,784.8z"/>
	<path class="st1" d="M217.2,679.8c-16,23.8-9.6,56,14.2,72s56,9.6,72-14.2c14.8-22.1,53.5-44.4,106.7-44.4s92,22.3,106.8,44.4
		c16,23.8,48.2,30.2,72,14.2s30.2-48.2,14.2-72c-37.4-55.8-111.4-90.5-193-90.5S254.5,624,217.2,679.8z"/>
</g>
<path class="st2" d="M586.5,659.1C546.1,615.6,481,589.4,410,589.4c-81.7,0-155.6,34.7-193,90.5c-15.2,22.8-10,53.2,11.3,69.8
	c-13.3-17.2-14.9-41.6-2.1-60.7c37.4-55.8,111.4-90.5,193-90.5C485.1,598.5,545.9,621,586.5,659.1z"/>
<g>
	<path class="st3" d="M568.9,692.8c1.9,2.8,1.2,6.5-1.6,8.4s-6.5,1.2-8.4-1.6c-26.7-39.4-68.3-64-114-67.5c-3.4-0.3-5.9-3.2-5.6-6.5
		c0.3-3.4,3.2-5.9,6.5-5.6c38.7,3,74.6,19.9,102.2,47.5C555.6,675.1,562.6,683.6,568.9,692.8z"/>
	<path class="st3" d="M432.9,625.2c-0.3,3.3-3.2,5.8-6.5,5.6c-2.8-0.2-5.6-0.4-8.4-0.5c-3.3-0.2-5.9-3-5.8-6.3
		c0.2-3.3,3-5.9,6.3-5.8c3,0.1,6,0.3,8.9,0.5c1.5,0.2,2.8,0.8,3.8,1.8C432.4,621.7,433.1,623.4,432.9,625.2z"/>
</g>
</svg>
